<?xml version="1.0" encoding="iso-8859-1"?>
<!-- Generator: Adobe Illustrator 22.0.1, SVG Export Plug-In . SVG Version: 6.00 Build 0)  -->
<svg version="1.1" id="Layer_1" xmlns="http://www.w3.org/2000/svg" xmlns:xlink="http://www.w3.org/1999/xlink" x="0px" y="0px"
	 viewBox="0 0 214.11 306.348" style="enable-background:new 0 0 214.11 306.348;" xml:space="preserve">
<g>
	<g>
		<g>
			<path style="fill:#FFFFFF;" d="M137.115,128.642c0.65,4.209,0.726,7.274-0.058,8.681c-0.789,1.416-2.338,2.105-3.634,4.189
				c-0.735,1.183-1.063,2.414-1.535,4.455c-0.405,1.754-2.359,2.18-3.308,0.65c-1.139-1.835-2.92-3.942-4.677-4.443
				c-2.057-0.586-4.376-0.103-5.495,0.058c0.622-1.331,1.239-3.244,2.484-4.911c1.127-1.507,2.777-2.81,4.012-3.393
				c0.466-0.22,0.911-0.367,1.36-0.45c0.959-0.178,1.716-0.049,1.929-0.017c0.881,0.133,2.881,0.662,5.676-1.051
				C135.285,131.546,136.151,130.659,137.115,128.642z"/>
		</g>
		<path style="fill:#FFFFFF;" d="M154.127,113.472c3.624-3.508,5.524-7.453,5.524-14.562c0-10.955-12.522-14.976-12.013-24.546
			c0.414-7.795,6.765-16.414,10.238-19.405c0.117-0.1,0.112-0.281,0.009-0.395l-3.681-2.916c-0.216-0.224-0.48-0.37-0.817-0.118
			c-2.643,1.975-6.891,6.174-10.225,11.46c-1.835,2.91-3.679,8.567-3.679,12.075c0,6.775,2.159,7.198,5.7,14.03
			c4.694,9.058,2.022,11.214,1.578,11.633c-1.691,1.6-6.883-0.288-10.99-2.748c-3.84-2.299-6.587-5.81-9.353-6.957
			c-4.184-1.733-9.054-0.703-13.561-0.726c-0.932-0.005-2.253,0.529-2.921,1.177c-2.527,2.451-2.793,2.444-3.16,1.917
			c-0.229-0.329-0.575-0.946,2.28-2.981c0.564-0.402,1.247-0.978,1.939-0.985c0,0,5.154-0.516,9.888-0.1
			c0.249,0.022,0.369-0.303,0.201-0.488c-3.465-3.816-3.806-6.029-5.714-6.029c-1.022,0-1.75,0.36-2.322,0.79
			c-0.607,0.457-1.415,0.522-2.136,0.283c-1.195-0.397-2.903-0.718-4.136,0.038c-1.87,1.146-2.894,5.899-5.387,7.618
			c-0.069,0.047-0.159,0.062-0.241,0.046c-7.543-1.471-9.094-4.506-12.611-4.066c-14.03,1.754-18.677,13.557-18.677,31.217
			c0,11.575,2.949,22.813,7.687,26.072c3.834,2.638,11.224,4.439,21.98,4.424c6.213-0.008,13.504,0,16.602-5.184
			c1.984-3.319,2.103-5.764,4.443-8.593c3.347-4.048,6.061-2.798,9.88-3.04c3.796-0.241,5.7-5.13,7.173-6.314
			c2.429-1.951,8.012-1.125,8.26-4.034c0.107-1.248-1.06-2.439-2.511-3.672c-0.34-0.289-0.636,0.512-0.44,0.914
			c0.877,1.797,0.907,2.763-0.235,3.051c-6.871-0.049-13.767-3.741-21.217-2.66l0.133-0.789c0.105-0.619,0.615-1.095,1.241-1.131
			C132.442,117.224,147.618,119.771,154.127,113.472z"/>
		<g>
			<path style="fill:#FFFFFF;" d="M71.437,96.636c-7.366-1.929-14.162-0.285-24.64,8.243
				c-13.598,11.067-12.599,28.937-12.627,30.691c-0.063,3.892-0.371,9.412,1.403,15.667c0.763,2.692,2.01,4.435,2.485,6.587
				c0.524,2.377-0.157,10.479,0.497,12.558c1.471,4.68,2.983,13.134,3.215,21.074c0.102,3.49-0.234,10.055-1.754,14.848
				c-0.888,2.8,3.551,4.613,8.769,4.56c4.636-0.047,10.441-2.562,10.377-7.701c-0.029-2.368-1.857-3.286-2.719-5.277
				c-1.129-2.608-1.388-6.478-1.469-7.951c-0.493-8.964-0.542-16.053-0.1-24.23c0.033-0.605,0.667-0.997,1.213-0.734
				c1.85,0.891,4.777,1.96,8.482,2.048c3.924,0.094,7.029-0.952,8.893-1.781c0.551-0.245,1.196-0.09,1.559,0.392
				c1.435,1.901,2.916,3.966,3.928,6.416c3.624,8.769,4.414,36.917,3.1,39.471c-1.387,2.695-3.305,2.777-3.305,4.999
				c0,2.303,2.135,4.11,10.436,4.11c11.458,0,12.035-2.43,12.092-5.49c0.058-3.098-2.038-3.542-2.798-5.091
				c-1.17-2.386-1.471-12.926-1.52-17.421c-0.058-5.32-0.468-8.652,1.52-15.784c1.641-5.887,1.251-11.839,1.176-15.618
				c-0.014-0.719,0.53-1.324,1.247-1.382c1.042-0.083,2.416-0.276,3.54-0.625c0.635-0.197,0.999-0.328,1.292-0.469
				c0.432-0.208,0.959-0.058,1.175,0.37c1.001,1.978,2.413,3.46,3.641,4.074c2.468,1.234,6.094,1.359,7.871,3.306
				c0.94,1.03,1.292,2.905,1.292,3.753c0,1.094-0.482,3.069-1.841,5.042c-1.114,1.616-5.913,6.36-8.091,7.85
				c-0.413,0.282-0.623,0.787-0.53,1.279c1.493,7.912,6.614,9.505,12.961,9.505c7.19,0,10.981-1.566,10.259-9.689
				c-0.161-1.817-0.392-3.816-0.044-6.62c0.717-5.775,4.691-5.334,4.691-11.882c0-2.559-1.84-7.702-5.554-12.744
				c-4.435-6.021-6.547-11.107-13.562-9.236c-1.81,0.483,0.701,7.366-21.747,6.328c-8.298-0.384-15.223-0.335-20.946-5.556
				C67.316,137.236,66.001,105.756,71.437,96.636z"/>
		</g>
		<g>
			<path style="fill:#FFFFFF;" d="M57.157,167.852c0.058-0.403,0.531-0.596,0.848-0.34c1.245,1.006,3.59,1.235,5.979,1.378
				c2.219,0.133,3.649-0.143,4.633-0.482c0.454-0.156,0.879,0.304,0.662,0.731c-0.907,1.784-1.455,3.608-2.254,7.414
				c-1.169,5.566-2.19,15.517-1.637,16.07c0.585,0.585,2.247-0.472,3.288,0.205c0.877,0.57,1.168,1.921,1.184,2.938
				c0.046,3.035-2.894,3.873-6.226,3.873c-5.32,0-5.565-2.163-6.226-3.332c-1.099-1.946-1.08-10.354-1.198-14.79
				C56.042,175.275,56.491,172.502,57.157,167.852z"/>
		</g>
		<polygon style="fill:#D6A068;" points="138.355,6.615 163.211,0 169.598,12.584 152.201,19.373 141.445,10.829 		"/>
		<polygon style="fill:#D6A068;" points="170.699,12.678 182.161,3.934 207.636,18.649 196.452,27.822 		"/>
		<polygon style="fill:#D6A068;" points="174.021,42.822 197.04,28.716 214.11,33.042 191.714,50.485 		"/>
		<polygon style="fill:#D6A068;" points="185.892,49.444 169.858,60.541 173.761,44.101 		"/>
		<polygon style="fill:#D6A068;" points="168.683,60.158 172.483,43.556 146.06,24.148 144.423,40.984 		"/>
		<polygon style="fill:#D6A068;" points="145.826,22.511 141.617,12.69 169.677,34.436 172.483,42.153 		"/>
		<g>
			<path style="fill:#FFFFFF;" d="M122.986,103.793c0,0.349,2.792,1.103,4.766,0.001c0.678-0.379,0.817-0.941,0.817-0.941
				c-0.778-0.302-0.86-1.064-1.03-1.596c-0.11-0.341-0.575-0.378-0.731-0.055c-0.31,0.643-0.83,1.292-1.398,1.658
				C124.625,103.366,122.986,103.463,122.986,103.793z"/>
		</g>
	</g>
	<g>
		<path style="fill:#FFFFFF;" d="M0,256.567h9.972v7.532c0,3.077,0.425,7.214,4.032,7.214c3.925,0,4.35-3.713,4.35-7.638v-61.319
			h10.608v62.486c0,9.336-4.456,14.746-14.958,14.746C5.198,279.588,0,276.936,0,266.434V256.567z"/>
		<path style="fill:#FFFFFF;" d="M36.278,239.381c0-9.017,5.198-14.321,14.428-14.321c7.957,0,14.534,3.395,14.534,13.26v17.187
			h-18.99v11.352c0,4.986,1.698,6.365,4.88,6.365c3.713,0,4.774-2.652,4.774-6.895v-4.88h9.336v7.532
			c0,5.411-3.82,10.608-14.853,10.608c-7.532,0-14.11-3.395-14.11-13.26V239.381z M46.251,248.505h9.654v-10.396
			c0-4.775-1.379-6.684-4.774-6.684c-3.713,0-4.88,2.016-4.88,5.835V248.505z"/>
		<path style="fill:#FFFFFF;" d="M72.558,225.696h9.336v4.456h0.211c0.955-1.591,2.228-2.864,3.82-3.713
			c1.591-0.955,3.395-1.379,5.411-1.379c4.986,0,9.335,2.652,9.335,10.503v43.39h-9.972v-41.481c0-2.758-0.743-4.774-3.819-4.774
			c-2.441,0-4.35,1.486-4.35,5.622v40.632h-9.972V225.696z"/>
		<path style="fill:#FFFFFF;" d="M105.655,256.567h9.972v7.532c0,3.077,0.425,7.214,4.032,7.214c3.925,0,4.35-3.713,4.35-7.638
			v-61.319h10.608v62.486c0,9.336-4.456,14.746-14.958,14.746c-8.806,0-14.004-2.652-14.004-13.155V256.567z"/>
		<path style="fill:#FFFFFF;" d="M142.676,202.357h9.972v10.608h-9.972V202.357z M142.676,225.696h9.972v53.256h-9.972V225.696z"/>
		<path style="fill:#FFFFFF;" d="M161.028,202.357H171v76.596h-9.972V202.357z"/>
	</g>
	<g>
		<path style="fill:#D6A068;" d="M0,288.523h5.093c2.82-0.126,5.261,0.926,5.261,4.251c0,3.178-2.588,4.188-5.387,4.251H2.104v6.692
			H0V288.523z M5.409,295.215c0.253,0,2.735,0.126,2.735-2.441c0-2.567-2.482-2.441-2.735-2.441H2.104v4.882H5.409z"/>
		<path style="fill:#D6A068;" d="M9.792,303.717l6.398-15.194h2.251l6.145,15.194h-2.294l-1.641-3.956h-7.05l-1.641,3.956H9.792z
			 M14.316,297.951h5.662l-2.757-7.345L14.316,297.951z"/>
		<path style="fill:#D6A068;" d="M35.911,292.437c-0.106-1.452-1.663-2.421-3.22-2.421c-3.746,0-4.44,3.431-4.44,6.104
			c0,3.135,0.947,6.102,4.25,6.102c1.621,0,3.094-0.799,3.347-2.42h2.209c-0.209,2.547-2.778,4.23-5.745,4.23
			c-4.482,0-6.271-3.663-6.271-7.913c0-3.725,1.641-8.061,6.734-7.913c2.925,0.084,5.113,1.515,5.345,4.23H35.911z"/>
		<path style="fill:#D6A068;" d="M40.9,303.717v-15.194h2.104v6.588l6.334-6.588h2.884l-6.797,6.797l7.555,8.397h-2.968
			l-7.007-8.061v8.061H40.9z"/>
		<path style="fill:#D6A068;" d="M53.256,303.717l6.398-15.194h2.252l6.145,15.194h-2.293l-1.642-3.956h-7.05l-1.641,3.956H53.256z
			 M57.781,297.951h5.661l-2.756-7.345L57.781,297.951z"/>
		<path style="fill:#D6A068;" d="M80.533,292.311c-0.379-1.81-1.957-2.294-3.578-2.294c-3.725,0-5.072,3.262-4.988,6.104
			c0.168,3.893,1.347,6.018,5.704,6.102c1.031,0,2.062-0.168,3.03-0.484v-4.293H77.25v-1.81h5.556v7.513
			c-1.747,0.527-3.493,0.885-5.219,0.885c-2.147,0-3.893-0.274-5.556-1.747c-1.684-1.473-2.273-4.02-2.273-6.166
			c0-1.579,0.526-3.305,1.305-4.673c1.325-2.314,3.557-3.24,6.145-3.24c2.567,0,5.409,1.179,5.534,4.103H80.533z"/>
		<path style="fill:#D6A068;" d="M86.64,303.717v-15.194h2.104v15.194H86.64z"/>
		<path style="fill:#D6A068;" d="M104.969,288.523v15.194h-2.61l-7.681-12.9h-0.042v12.9h-1.873v-15.194h2.884l7.408,12.564h0.042
			v-12.564H104.969z"/>
		<path style="fill:#D6A068;" d="M119.326,292.311c-0.379-1.81-1.957-2.294-3.578-2.294c-3.725,0-5.072,3.262-4.988,6.104
			c0.168,3.893,1.347,6.018,5.704,6.102c1.031,0,2.062-0.168,3.03-0.484v-4.293h-3.451v-1.81h5.556v7.513
			c-1.747,0.527-3.493,0.885-5.219,0.885c-2.147,0-3.893-0.274-5.556-1.747c-1.684-1.473-2.273-4.02-2.273-6.166
			c0-1.579,0.526-3.305,1.305-4.673c1.325-2.314,3.557-3.24,6.145-3.24c2.567,0,5.409,1.179,5.534,4.103H119.326z"/>
		<path style="fill:#D6A068;" d="M125.936,301.192h2.441l-2.357,5.155h-1.431L125.936,301.192z"/>
		<path style="fill:#D6A068;" d="M137.261,303.717v-15.194h2.104v15.194H137.261z"/>
		<path style="fill:#D6A068;" d="M155.592,288.523v15.194h-2.61l-7.682-12.9h-0.042v12.9h-1.872v-15.194h2.883l7.408,12.564h0.042
			v-12.564H155.592z"/>
		<path style="fill:#D6A068;" d="M168.791,292.437c-0.106-1.452-1.663-2.421-3.22-2.421c-3.746,0-4.44,3.431-4.44,6.104
			c0,3.135,0.947,6.102,4.25,6.102c1.621,0,3.094-0.799,3.347-2.42h2.209c-0.209,2.547-2.778,4.23-5.745,4.23
			c-4.482,0-6.271-3.663-6.271-7.913c0-3.725,1.641-8.061,6.734-7.913c2.925,0.084,5.113,1.515,5.345,4.23H168.791z"/>
	</g>
</g>
</svg>
